<?xml version="1.0" encoding="UTF-8"?>
<svg width="197px" height="45px" viewBox="0 0 197 45" version="1.1" xmlns="http://www.w3.org/2000/svg" xmlns:xlink="http://www.w3.org/1999/xlink">
    <!-- Generator: Sketch 54.1 (76490) - https://sketchapp.com -->
    <title>Branding/Rewards Genius w/o logo</title>
    <desc>Created with Sketch.</desc>
    <g id="Page-1" stroke="none" stroke-width="1" fill="none" fill-rule="evenodd">
        <g id="Large-screen" transform="translate(-622.000000, -230.000000)" fill="#29A1B9">
            <g id="Branding/Rewards-Genius-w/o-logo" transform="translate(622.000000, 230.000000)">
                <g id="RG-Logo">
                    <path d="M132.449582,34.7142857 L132.968069,34.7142857 L133.731557,35.9324069 L134.497893,34.7142857 L135,34.7142857 L135,37.2857143 L134.529942,37.2857143 L134.529942,35.4574481 L133.750074,36.6856902 L133.699507,36.6856902 L132.917503,35.4574481 L132.917503,37.2857143 L132.449582,37.2857143 L132.449582,34.7142857 Z M130.638436,35.1653882 L129.857143,35.1653882 L129.857143,34.7142857 L131.906879,34.7142857 L131.906879,35.1653882 L131.124874,35.1653882 L131.124874,37.2857143 L130.638436,37.2857143 L130.638436,35.1653882 Z M122.142857,43.3995706 L123.196041,42.1429834 C124.150134,42.9710465 125.117251,43.442764 126.340869,43.442764 C127.42293,43.442764 128.105234,42.9289898 128.105234,42.1850402 L128.105234,42.1571918 C128.105234,41.4422272 127.707743,41.0574649 125.856744,40.6283725 C123.736788,40.11403 122.540915,39.4854522 122.540915,37.6423441 L122.540915,37.6144957 C122.540915,35.8998311 123.964978,34.7142857 125.942811,34.7142857 C127.394619,34.7142857 128.548024,35.1570181 129.558175,35.9714412 L128.618803,37.3002068 C127.722465,36.6278673 126.82556,36.2709534 125.9145,36.2709534 C124.890194,36.2709534 124.292257,36.7995043 124.292257,37.4570671 L124.292257,37.4854838 C124.292257,38.2567134 124.748071,38.5999874 126.668715,39.0574965 C128.775082,39.5712707 129.857143,40.328292 129.857143,41.9855548 L129.857143,42.0145399 C129.857143,43.8854964 128.391746,45 126.297836,45 C124.77525,45 123.337598,44.4714491 122.142857,43.3995706 Z M109.285714,40.5439889 L109.285714,34.7142857 L110.870785,34.7142857 L110.870785,40.4714773 C110.870785,42.3521753 111.733507,43.3506486 113.149005,43.3506486 C114.553232,43.3506486 115.416466,42.4102997 115.416466,40.5439889 L115.416466,34.7142857 L117,34.7142857 L117,40.4565146 C117,43.4801336 115.479992,45 113.12339,45 C110.779595,45 109.285714,43.4801336 109.285714,40.5439889 Z M101.571429,45 L101.571429,34.7142857 L103.071429,34.7142857 L103.071429,45 L101.571429,45 Z M87.4285714,34.7142857 L88.8710065,34.7142857 L93.6123767,41.825902 L93.6123767,34.7142857 L95.1428571,34.7142857 L95.1428571,45 L93.8407916,45 L88.9590519,37.6826227 L88.9590519,45 L87.4285714,45 L87.4285714,34.7142857 Z M75.8571429,34.7142857 L82.2247083,34.7142857 L82.2247083,36.3305621 L77.3666761,36.3305621 L77.3666761,39.0048712 L81.6722376,39.0048712 L81.6722376,40.6217322 L77.3666761,40.6217322 L77.3666761,43.383139 L82.2857143,43.383139 L82.2857143,45 L75.8571429,45 L75.8571429,34.7142857 Z M63,39.8856845 L63,39.8574254 C63,37.0727826 65.0611104,34.7142857 67.9603329,34.7142857 C69.6365569,34.7142857 70.6671121,35.19808 71.6572105,36.063936 L70.5851051,37.3858925 C69.8432147,36.7325442 69.1149921,36.3199626 67.891447,36.3199626 C66.1184546,36.3199626 64.7729923,37.9256396 64.7729923,39.8291664 L64.7729923,39.8574254 C64.7729923,41.9028126 66.0779978,43.4084526 68.0423399,43.4084526 C68.9493379,43.4084526 69.7754222,43.1106026 70.3647795,42.6561978 L70.3647795,40.7950594 L67.9051148,40.7950594 L67.9051148,39.2752899 L72,39.2752899 L72,43.4519715 C71.0525453,44.2890033 69.691775,45 67.988762,45 C64.97801,45 63,42.7833633 63,39.8856845 Z M193.657729,16.2495816 C193.657729,14.2748014 191.571069,13.4743677 188.799776,12.5296863 C185.370965,11.3564711 182.885501,10.2403894 182.885501,6.66417611 C182.885501,4.0026634 185.028084,1.28571429 189.629583,1.28571429 C193.001341,1.28571429 195.85793,3.28764702 196.48664,6.66417611 L193.400145,6.66417611 C193.02789,5.08989559 191.571069,4.11806161 189.629583,4.11806161 C187.085936,4.11806161 185.943187,5.40554364 185.943187,6.63532656 C185.943187,8.46642468 187.714645,9.12430763 189.943655,9.86817357 C193.914749,11.2133547 196.714286,12.5296863 196.714286,16.07705 C196.714286,19.7969453 193.427824,21.8571429 189.885472,21.8571429 C185.914378,21.8571429 183.199573,19.8257949 182.571429,16.4492658 L185.658488,16.4492658 C186.058422,18.1666627 187.542357,19.0242299 189.971334,19.0242299 C191.80041,19.0242299 193.657729,18.1383789 193.657729,16.2495816 Z M160.941576,19.074261 C165.479197,19.074261 167.747123,16.2363643 167.747123,12.1598155 C167.747123,8.21944223 165.269106,5.35376571 160.701977,5.35376571 L156.254647,5.35376571 L156.254647,19.074261 L160.941576,19.074261 Z M153,2.57142857 L160.701977,2.57142857 C167.208911,2.57142857 171,6.73131673 171,12.1598155 C171,17.7522696 167.419593,21.8571429 160.941576,21.8571429 L153,21.8571429 L153,2.57142857 Z M130.030865,11.2223836 C132.205542,11.2223836 133.918108,10.5327911 133.918108,8.329472 C133.918108,6.09782846 132.264023,5.32653061 129.972957,5.32653061 L125.275585,5.32653061 L125.275585,11.2223836 L130.030865,11.2223836 Z M125.304826,21.8571429 L122.142857,21.8571429 L122.142857,2.57142857 L129.972957,2.57142857 C133.918108,2.57142857 137.078356,4.05955407 137.078356,8.38448689 C137.078356,11.7736219 134.932346,13.3439974 132.032967,13.7568814 C132.757668,14.8865931 136.846727,20.7279759 137.571429,21.8571429 L134.177831,21.8571429 L128.726517,13.9774857 L125.304826,13.9774857 L125.304826,21.8571429 Z M101.097802,0 L110.571429,21.8571429 L107.297447,21.8571429 L101.046869,6.95170686 L95.7760753,18.9742709 L100.928024,18.9742709 L100.928024,21.8435176 L91.2857143,21.8435176 L101.097802,0 Z M75.7411331,15.7763227 L80.3069014,1.68398694 L83.5714286,1.68398694 L76.7813263,21.8571429 L74.9322844,21.8571429 L69.4422807,7.59403855 L63.9242873,21.8571429 L62.0746741,21.8571429 L55.2857143,1.68398694 L58.5508127,1.68398694 L63.1439996,15.7763227 L68.5768811,1.28571429 L70.2808329,1.28571429 L75.7411331,15.7763227 Z M32.5860599,5.35376571 L32.5860599,10.4505411 L41.5168026,10.4505411 L41.5168026,13.2339676 L32.5860599,13.2339676 L32.5860599,19.074261 L42.4285714,19.074261 L42.4285714,21.8571429 L29.5714286,21.8571429 L29.5714286,2.57142857 L42.4285714,2.57142857 L42.4285714,5.35376571 L32.5860599,5.35376571 Z M7.88828785,11.2223836 C10.0628845,11.2223836 11.7748133,10.5327911 11.7748133,8.329472 C11.7748133,6.09782846 10.1207897,5.32653061 7.82980937,5.32653061 L3.13261173,5.32653061 L3.13261173,11.2223836 L7.88828785,11.2223836 Z M3.16185097,21.8571429 L0,21.8571429 L0,2.57142857 L7.82980937,2.57142857 C11.7748133,2.57142857 14.9349443,4.05955407 14.9349443,8.38448689 C14.9349443,11.7736219 12.7895868,13.3439974 9.88916906,13.7568814 C10.6144168,14.8865931 14.7033237,20.7279759 15.4285714,21.8571429 L12.0350998,21.8571429 L6.58398849,13.9774857 L3.16185097,13.9774857 L3.16185097,21.8571429 L3.16185097,21.8571429 Z" id="Fill-1"></path>
                </g>
            </g>
        </g>
    </g>
</svg>